<?xml version="1.0" encoding="UTF-8" standalone="no"?>
<!DOCTYPE svg PUBLIC "-//W3C//DTD SVG 1.1//EN" "http://www.w3.org/Graphics/SVG/1.1/DTD/svg11.dtd">
<svg width="100%" height="100%" viewBox="0 0 1084 309" version="1.1" xmlns="http://www.w3.org/2000/svg" xmlns:xlink="http://www.w3.org/1999/xlink" xml:space="preserve" xmlns:serif="http://www.serif.com/" style="fill-rule:evenodd;clip-rule:evenodd;stroke-linejoin:round;stroke-miterlimit:2;">
    <g transform="matrix(4.16667,0,0,4.16667,0,0)">
        <path d="M0,41.49L22.45,63.94L44.9,41.49L44.9,30.41L22.45,52.86L0,30.42L0,41.5L0,41.49Z" style="fill:rgb(0,84,119);fill-rule:nonzero;"/>
        <path d="M0,21.19L22.45,43.63L44.9,21.19L44.9,10.11L22.45,32.56L0,10.11L0,21.19Z" style="fill:rgb(24,197,237);fill-rule:nonzero;"/>
        <path d="M44.9,63.16L44.9,49.39L31.13,63.16L44.9,63.16Z" style="fill:rgb(24,197,237);fill-rule:nonzero;"/>
        <path d="M0,63.16L13.77,63.16L0,49.39L0,63.16Z" style="fill:rgb(24,197,237);fill-rule:nonzero;"/>
        <g>
            <path d="M78.92,10.44L85.62,10.44L92.83,29.86L100.04,10.44L106.58,10.44L95.44,38.2L90.08,38.2L78.93,10.44L78.92,10.44Z" style="fill:rgb(0,84,119);fill-rule:nonzero;"/>
            <path d="M117.52,10.25L123.11,10.25L134.93,38.01L128.59,38.01L126.07,31.83L114.41,31.83L111.89,38.01L105.71,38.01L117.53,10.25L117.52,10.25ZM123.9,26.48L120.24,17.54L116.58,26.48L123.91,26.48L123.9,26.48Z" style="fill:rgb(0,84,119);fill-rule:nonzero;"/>
            <path d="M140.36,10.44L146.43,10.44L146.43,32.49L160.17,32.49L160.17,38L140.36,38L140.36,10.44Z" style="fill:rgb(0,84,119);fill-rule:nonzero;"/>
            <path d="M166.76,10.44L173.3,10.44L180.55,22.1L187.8,10.44L194.34,10.44L194.34,38.01L188.31,38.01L188.31,20.01L180.55,31.79L180.39,31.79L172.72,20.14L172.72,38.02L166.77,38.02L166.77,10.44L166.76,10.44Z" style="fill:rgb(0,84,119);fill-rule:nonzero;"/>
            <path d="M212.94,10.25L218.53,10.25L230.35,38.01L224.01,38.01L221.49,31.83L209.84,31.83L207.32,38.01L201.14,38.01L212.96,10.25L212.94,10.25ZM219.32,26.48L215.66,17.54L212,26.48L219.33,26.48L219.32,26.48Z" style="fill:rgb(0,84,119);fill-rule:nonzero;"/>
            <path d="M235.85,10.58L248.63,10.58C252.18,10.58 254.93,11.58 256.77,13.41C258.4,15.13 259.26,17.43 259.16,19.8L259.16,19.88C259.34,23.79 256.89,27.33 253.17,28.54L259.99,38.52L252.81,38.52L246.83,29.58L242,29.58L242,38.52L235.85,38.52L235.85,10.58ZM248.23,24.15C251.22,24.15 252.94,22.55 252.94,20.2L252.94,20.12C252.94,17.49 251.1,16.13 248.11,16.13L242,16.13L242,24.15L248.23,24.15Z" style="fill:rgb(0,84,119);fill-rule:nonzero;"/>
            <path d="M81.66,44.52L83.78,44.52L83.78,52.86L94.61,52.86L94.61,44.52L96.73,44.52L96.73,63.29L94.61,63.29L94.61,54.84L83.78,54.84L83.78,63.29L81.66,63.29L81.66,44.52Z" style="fill:rgb(0,84,119);fill-rule:nonzero;"/>
            <path d="M106.17,53.96L106.17,53.91C106.1,48.62 110.34,44.28 115.62,44.22C120.91,44.15 125.25,48.39 125.31,53.67L125.31,53.91C125.38,59.2 121.14,63.54 115.86,63.6C110.57,63.67 106.23,59.43 106.17,54.15L106.17,53.96M123.12,53.96L123.12,53.91C123.28,49.79 120.07,46.32 115.95,46.17L115.72,46.17C111.65,46.18 108.35,49.49 108.36,53.56L108.36,53.92C108.2,58.04 111.41,61.51 115.53,61.66L115.76,61.66C119.83,61.65 123.13,58.34 123.12,54.27L123.12,53.96" style="fill:rgb(0,84,119);fill-rule:nonzero;"/>
            <path d="M134.76,44.52L136.88,44.52L136.88,61.33L147.45,61.33L147.45,63.29L134.77,63.29L134.77,44.52L134.76,44.52Z" style="fill:rgb(0,84,119);fill-rule:nonzero;"/>
            <path d="M157.88,44.52L164.4,44.52C170.3,44.52 174.38,48.57 174.38,53.85L174.38,53.9C174.38,59.18 170.3,63.29 164.4,63.29L157.88,63.29L157.88,44.52ZM164.4,61.33C169.15,61.33 172.18,58.11 172.18,53.95L172.18,53.9C172.18,49.74 169.15,46.47 164.4,46.47L160,46.47L160,61.33L164.4,61.33Z" style="fill:rgb(0,84,119);fill-rule:nonzero;"/>
            <rect x="183.38" y="44.52" width="2.12" height="18.77" style="fill:rgb(0,84,119);fill-rule:nonzero;"/>
            <path d="M194.71,44.52L196.69,44.52L208.52,59.56L208.52,44.52L210.59,44.52L210.59,63.29L208.9,63.29L196.78,47.9L196.78,63.29L194.71,63.29L194.71,44.52Z" style="fill:rgb(0,84,119);fill-rule:nonzero;"/>
            <path d="M219.71,53.96L219.71,53.91C219.55,48.71 223.64,44.37 228.84,44.21L229.13,44.21C231.7,44.1 234.21,44.99 236.13,46.7L234.76,48.31C233.22,46.87 231.16,46.09 229.05,46.16C224.89,46.16 221.92,49.67 221.92,53.86L221.92,53.91C221.92,58.39 224.79,61.71 229.35,61.71C231.31,61.71 233.22,61.04 234.77,59.83L234.77,55.16L229.06,55.16L229.06,53.26L236.81,53.26L236.81,60.74C234.73,62.58 232.05,63.6 229.28,63.61C223.38,63.61 219.73,59.32 219.73,53.96" style="fill:rgb(0,84,119);fill-rule:nonzero;"/>
            <path d="M245.92,60.56L247.23,59.01C248.93,60.73 251.25,61.69 253.67,61.66C256.19,61.66 257.85,60.32 257.85,58.47L257.85,58.42C257.85,56.68 256.91,55.68 252.97,54.85C248.65,53.91 246.67,52.52 246.67,49.43L246.67,49.38C246.67,46.43 249.27,44.26 252.84,44.26C255.25,44.19 257.6,45.01 259.44,46.57L258.21,48.21C256.71,46.9 254.79,46.17 252.79,46.17C250.35,46.17 248.79,47.51 248.79,49.2L248.79,49.25C248.79,51.02 249.76,52.01 253.88,52.9C258.06,53.81 259.99,55.34 259.99,58.21L259.99,58.26C259.99,61.48 257.31,63.57 253.58,63.57C250.73,63.6 247.98,62.53 245.91,60.57" style="fill:rgb(0,84,119);fill-rule:nonzero;"/>
        </g>
        <rect x="63.74" y="0" width="0.94" height="74.05" style="fill:rgb(0,84,119);fill-rule:nonzero;"/>
    </g>
</svg>
